<svg height="1024" width="1024" xmlns="http://www.w3.org/2000/svg" viewBox="0 0 32 32"><g data-name="Arrow Arrows Direction Up Icon"><path d="M9.73145,2H3A1,1,0,0,0,3,4H9.73145A11.37908,11.37908,0,0,1,21,15.46094V26.55865L15.71289,21.189a1.00027,1.00027,0,0,0-1.42578,1.40333l7,7.10937c.01105.01117.026.01459.03741.02515a.9869.9869,0,0,0,.26709.17938c.01245.00555.02277.01544.03534.02051l.00684.004a.98508.98508,0,0,0,.74969-.0097,1.01394,1.01394,0,0,0,.12525-.08221.95958.95958,0,0,0,.19244-.12635c.00537-.00531.0069-.01257.01215-.01794s.01294-.0072.01813-.01282l7-7.51562a.99983.99983,0,1,0-1.4629-1.36329L23,26.459v-10.998A13.3815,13.3815,0,0,0,9.73145,2Z"></path></g></svg>