<svg width="32" height="36" viewBox="0 0 32 36" fill="none" xmlns="http://www.w3.org/2000/svg">
<path d="M9.99642 33.4975C13.3375 36.8326 18.7562 36.8344 22.0994 33.5014C22.1008 33.5001 22.102 33.4989 22.1033 33.4975L31.2633 24.3599C32.3199 23.1942 32.2291 21.3945 31.0606 20.3405C29.9725 19.3591 28.3157 19.3608 27.2296 20.3445L18.8827 28.674L18.9026 2.84582C18.9024 1.27404 17.6253 0 16.0498 0C14.4743 0 13.1971 1.27404 13.1971 2.84569L13.1715 28.6199L4.87012 20.3445C3.75543 19.2333 1.94887 19.234 0.834982 20.3459C-0.278906 21.4579 -0.278238 23.2601 0.836453 24.3712L9.99642 33.4975Z" fill="white"/>
</svg>
