<svg width="16" height="16" viewBox="0 0 16 16" fill="none" xmlns="http://www.w3.org/2000/svg">
<path d="M7.99937 14.1005C4.44937 14.1005 1.59937 11.2505 1.59937 7.70049C1.59937 4.17549 4.44937 1.30049 7.99937 1.30049C11.5244 1.30049 14.3994 4.17549 14.3994 7.70049C14.3994 11.2505 11.5244 14.1005 7.99937 14.1005ZM7.99937 4.50049C7.64937 4.50049 7.39937 4.77549 7.39937 5.10049V7.90049C7.39937 8.25049 7.64937 8.50049 7.99937 8.50049C8.32437 8.50049 8.59937 8.25049 8.59937 7.90049V5.10049C8.59937 4.77549 8.32437 4.50049 7.99937 4.50049ZM8.79937 10.1005C8.79937 9.67549 8.42437 9.30049 7.99937 9.30049C7.54937 9.30049 7.19937 9.67549 7.19937 10.1005C7.19937 10.5505 7.54937 10.9005 7.99937 10.9005C8.42437 10.9005 8.79937 10.5505 8.79937 10.1005Z" fill="#FC8383"/>
</svg>
