<svg width="20" height="21" viewBox="0 0 20 21" fill="none" xmlns="http://www.w3.org/2000/svg">
<path d="M10 18.5C5.5625 18.5 2 14.9375 2 10.5C2 6.09375 5.5625 2.5 10 2.5C14.4062 2.5 18 6.09375 18 10.5C18 14.9375 14.4062 18.5 10 18.5ZM7.46875 7.96875C7.15625 8.28125 7.15625 8.75 7.46875 9.03125L8.9375 10.5L7.46875 11.9688C7.15625 12.2812 7.15625 12.75 7.46875 13.0312C7.75 13.3438 8.21875 13.3438 8.5 13.0312L9.96875 11.5625L11.4375 13.0312C11.75 13.3438 12.2188 13.3438 12.5 13.0312C12.8125 12.75 12.8125 12.2812 12.5 11.9688L11.0312 10.5L12.5 9.03125C12.8125 8.75 12.8125 8.28125 12.5 7.96875C12.2188 7.6875 11.75 7.6875 11.4375 7.96875L9.96875 9.4375L8.5 7.96875C8.21875 7.6875 7.75 7.6875 7.46875 7.96875Z" fill="white"/>
</svg>
