<svg width="24" height="25" viewBox="0 0 24 25" fill="none" xmlns="http://www.w3.org/2000/svg">
<path d="M5.9999 3.2H16.7999C18.1124 3.2 19.1999 4.2875 19.1999 5.6V20C19.1999 21.35 18.1124 22.4 16.7999 22.4H5.9999C4.6499 22.4 3.5999 21.35 3.5999 20V5.6C3.5999 4.2875 4.6499 3.2 5.9999 3.2ZM10.1999 14C8.5124 14 7.1999 15.35 7.1999 17C7.1999 17.3375 7.4624 17.6 7.7999 17.6H14.9999C15.2999 17.6 15.5999 17.3375 15.5999 17C15.5999 15.35 14.2499 14 12.5999 14H10.1999ZM13.7999 10.4C13.7999 9.0875 12.7124 8 11.3999 8C10.0499 8 8.9999 9.0875 8.9999 10.4C8.9999 11.75 10.0499 12.8 11.3999 12.8C12.7124 12.8 13.7999 11.75 13.7999 10.4ZM21.5999 6.2V8.6C21.5999 8.9375 21.2999 9.2 20.9999 9.2C20.6624 9.2 20.3999 8.9375 20.3999 8.6V6.2C20.3999 5.9 20.6624 5.6 20.9999 5.6C21.2999 5.6 21.5999 5.9 21.5999 6.2ZM20.9999 10.4C21.2999 10.4 21.5999 10.7 21.5999 11V13.4C21.5999 13.7375 21.2999 14 20.9999 14C20.6624 14 20.3999 13.7375 20.3999 13.4V11C20.3999 10.7 20.6624 10.4 20.9999 10.4ZM21.5999 15.8V18.2C21.5999 18.5375 21.2999 18.8 20.9999 18.8C20.6624 18.8 20.3999 18.5375 20.3999 18.2V15.8C20.3999 15.5 20.6624 15.2 20.9999 15.2C21.2999 15.2 21.5999 15.5 21.5999 15.8Z" fill="white"/>
</svg>
