<svg width="25" height="19" viewBox="0 0 25 19" fill="none" xmlns="http://www.w3.org/2000/svg">
    <path fill-rule="evenodd" clip-rule="evenodd"
        d="M7.16181 2.15718C7.06595 2.2506 6.96301 2.35299 6.82554 2.49113C6.82554 2.49113 4.56085 4.75509 4.55328 4.76163C4.48302 4.82821 4.42455 4.88515 4.36394 4.94534C4.33609 4.97316 4.31131 4.99763 4.25848 5.04954C4.21306 5.09418 4.19203 5.1149 4.16585 5.14092L2.1182 7.18884C2.07425 7.23438 2.03654 7.27274 1.98805 7.32139L1.93285 7.37683C1.87033 7.43941 1.82087 7.49033 1.75096 7.56316C1.59061 7.72124 1.428 7.9 1.27489 8.08747C1.13263 8.23901 1.01778 8.41418 0.935548 8.60519L0.913822 8.66297C0.765705 9.12105 0.765705 9.61409 0.913822 10.0722L0.936504 10.1322C1.01936 10.3227 1.13482 10.4972 1.27762 10.648C1.43009 10.8352 1.59257 11.0139 1.76436 11.1836C1.8005 11.2225 1.85376 11.2769 1.92488 11.3479C1.97401 11.397 1.99515 11.4182 2.02148 11.4447C2.0555 11.479 2.08491 11.5089 2.11221 11.5372L4.16526 13.592C4.26698 13.6936 4.31251 13.7388 4.39398 13.8182C4.46095 13.8843 4.50058 13.9228 4.57396 13.9904L6.82757 16.2451C6.99648 16.4138 7.07226 16.4892 7.16777 16.5829C7.29192 16.707 7.37376 16.7872 7.5016 16.912C7.54976 16.9627 7.56781 16.9814 7.5925 17.0044C7.88102 17.294 8.23292 17.5499 8.61826 17.7464C9.00398 17.9404 9.41294 18.0753 9.83501 18.1481C10.2305 18.2132 10.6251 18.2479 11.0206 18.2529C11.1884 18.2566 11.3567 18.2589 11.5229 18.2595L11.919 18.2595H19.286C19.439 18.2595 19.5905 18.2574 19.8007 18.2528C20.1939 18.248 20.5924 18.213 20.9867 18.1484C21.4172 18.0741 21.829 17.938 22.214 17.7436C22.6043 17.5465 22.9603 17.2886 23.2691 16.9797C23.5765 16.6713 23.8336 16.3177 24.0316 15.9309C24.2277 15.5411 24.3634 15.1289 24.4364 14.7036C24.5017 14.3049 24.5365 13.907 24.5412 13.5082C24.5442 13.4103 24.5456 13.324 24.5479 13.132L24.5494 13.009L24.5495 12.403V5.69397L24.5483 5.58784C24.5471 5.46947 24.5464 5.41778 24.5453 5.35145C24.5442 5.28924 24.5429 5.23218 24.5413 5.17721C24.5369 4.79379 24.5025 4.39944 24.4386 4.00933C24.3652 3.5823 24.2306 3.17362 24.0385 2.79121C23.8395 2.40266 23.5841 2.05167 23.2793 1.74625C22.9743 1.43943 22.621 1.1827 22.2336 0.986798C21.8514 0.793674 21.4429 0.658449 21.0211 0.585444C20.6238 0.520891 20.2291 0.486453 19.8335 0.481278C19.6544 0.476945 19.4891 0.474633 19.3302 0.474633C19.1698 0.472989 19.0371 0.472656 18.7393 0.472656H12.1145C11.8188 0.472656 11.6853 0.472991 11.5176 0.474666C11.3657 0.474633 11.2009 0.47693 11.012 0.481407C10.6239 0.486497 10.2299 0.520941 9.84001 0.584327C9.41121 0.658571 9.0023 0.793648 8.61981 0.986306C8.23159 1.18389 7.8795 1.44017 7.57422 1.74683C7.56007 1.76073 7.54971 1.77161 7.46328 1.86378C7.35606 1.96536 7.25745 2.06129 7.16181 2.15718ZM4.59693 4.72424L4.59938 4.72232L4.59446 4.72608L4.5918 4.72822L4.59693 4.72424ZM7.76187 15.3109L5.48415 13.0322C5.48415 13.0322 5.43872 12.9909 5.43399 12.9869C5.39885 12.9534 5.36862 12.9238 5.2931 12.8493C5.23859 12.7964 5.19618 12.7544 5.09963 12.6579L3.05481 10.6115C3.03083 10.5866 2.99743 10.5525 2.95953 10.5143C2.93139 10.486 2.90865 10.4632 2.85885 10.4134C2.79623 10.3509 2.75127 10.305 2.70936 10.2606C2.54924 10.1019 2.41369 9.95205 2.28689 9.79497L2.24344 9.74629C2.20988 9.71225 2.18179 9.67333 2.16009 9.63089C2.11057 9.45656 2.1107 9.27186 2.16047 9.09758C2.1822 9.05439 2.21045 9.01471 2.24427 8.97998L2.28422 8.93502C2.41172 8.77762 2.54785 8.62739 2.69198 8.48502C2.7692 8.40491 2.81383 8.35896 2.84758 8.32478L2.89252 8.28005L2.92409 8.24844C2.97774 8.19461 3.02065 8.15096 3.06184 8.1081L5.09891 6.07095C5.12127 6.04873 5.1402 6.03007 5.19374 5.97746C5.24002 5.93198 5.26681 5.90552 5.29651 5.87586C5.34245 5.83023 5.38765 5.78611 5.43203 5.7436C5.44178 5.73546 5.45313 5.72495 5.48543 5.69503L5.48547 5.69499L7.76118 3.41858C7.89552 3.28359 7.99431 3.18533 8.09102 3.09099C8.18401 2.99785 8.27376 2.91052 8.36868 2.82059C8.38972 2.80097 8.40229 2.78784 8.46039 2.72626L8.50632 2.67779C8.71754 2.46566 8.95606 2.29205 9.21737 2.15905C9.48124 2.02615 9.76598 1.93209 10.0599 1.88118C10.3787 1.82938 10.7077 1.80062 11.0376 1.79626C11.2237 1.79188 11.3784 1.78973 11.5255 1.78973C11.6938 1.78808 11.8245 1.78775 12.1158 1.78775H18.7405C19.0339 1.78775 19.1637 1.78808 19.3248 1.78969C19.4788 1.78973 19.6338 1.7919 19.8103 1.79613C20.148 1.80058 20.4777 1.82935 20.8039 1.88233C21.0901 1.93191 21.3739 2.02584 21.6393 2.15992C21.9005 2.29204 22.139 2.46532 22.3455 2.67305C22.5545 2.88251 22.7289 3.12214 22.8632 3.38427C22.9947 3.64608 23.0884 3.93079 23.139 4.22458C23.1912 4.5442 23.2199 4.8727 23.2238 5.20196C23.2255 5.26283 23.2267 5.31446 23.2276 5.37143C23.2287 5.43398 23.2293 5.48382 23.2306 5.59934L23.2317 5.69921L23.2316 6.28199V12.9918L23.2301 13.1137C23.2279 13.298 23.2266 13.3791 23.2237 13.4783C23.2195 13.8227 23.1905 14.1547 23.1367 14.4832C23.0866 14.7752 22.9918 15.0631 22.8563 15.3325C22.7228 15.5933 22.5466 15.8356 22.3363 16.0465C22.1271 16.2559 21.8851 16.4311 21.6202 16.5649C21.3521 16.7003 21.065 16.7951 20.7688 16.8462C20.4452 16.8993 20.1127 16.9285 19.7794 16.9325C19.5718 16.937 19.4287 16.9391 19.2873 16.9391H11.5268C11.3713 16.9385 11.2109 16.9363 11.0447 16.9327C10.7091 16.9284 10.3806 16.8995 10.0556 16.846C9.76694 16.7962 9.48224 16.7023 9.21592 16.5684C8.95732 16.4365 8.71827 16.2626 8.51075 16.0548C8.49833 16.0426 8.4811 16.0248 8.45931 16.0018L8.45662 15.999L8.45645 15.9988C8.40465 15.9443 8.39295 15.9319 8.38069 15.9202L8.36586 15.9063C8.29045 15.8356 8.21677 15.7634 8.09757 15.6443C8.00162 15.5501 7.92768 15.4766 7.76187 15.3109ZM12.4941 12.8533C12.4399 12.9076 12.3748 12.9519 12.3011 12.9824C12.08 13.0739 11.8255 13.0233 11.6563 12.8543C11.545 12.7434 11.4824 12.5928 11.4824 12.4357C11.4824 12.2786 11.545 12.128 11.6563 12.0172V12.0185C11.6851 11.9898 11.7162 11.9645 11.7493 11.9428L14.3268 9.36467L11.6562 6.6998L11.6668 6.68924C11.6131 6.63551 11.5694 6.571 11.5392 6.49811C11.4476 6.27726 11.4982 6.02305 11.6675 5.85402C11.7785 5.74238 11.9295 5.67961 12.0871 5.67961C12.2446 5.67961 12.3957 5.74238 12.5067 5.85402H12.5041C12.536 5.88592 12.5637 5.92086 12.5871 5.95803L15.1622 8.529L17.7533 5.9373C17.7737 5.90752 17.7972 5.87919 17.8237 5.85275C17.9928 5.68371 18.2473 5.63313 18.4684 5.72461C18.6895 5.81609 18.8336 6.0316 18.8336 6.27064C18.8336 6.42955 18.7699 6.57805 18.6623 6.68663L18.6693 6.6937L15.9991 9.36452L18.588 11.9491C18.6177 11.9695 18.6456 11.9926 18.6714 12.0184L18.6701 12.0197C18.8393 12.1888 18.8899 12.443 18.7984 12.6638C18.7068 12.8847 18.4911 13.0287 18.2518 13.0287C18.0921 13.0287 17.9428 12.9645 17.834 12.8562L17.8299 12.8604L15.1639 10.2L12.5026 12.8618L12.4941 12.8533Z"
        fill="black" fill-opacity="0.87" />
</svg>