<svg width="136" height="64" viewBox="0 0 136 64" fill="none" xmlns="http://www.w3.org/2000/svg">
    <path fill-rule="evenodd" clip-rule="evenodd"
        d="M32 57.8868C46.2969 57.8868 57.8868 46.2969 57.8868 32C57.8868 17.7031 46.2969 6.11321 32 6.11321C17.7031 6.11321 6.11321 17.7031 6.11321 32C6.11321 46.2969 17.7031 57.8868 32 57.8868ZM32 60C47.464 60 60 47.464 60 32C60 16.536 47.464 4 32 4C16.536 4 4 16.536 4 32C4 47.464 16.536 60 32 60Z"
        fill="#1C1478" />
    <path fill-rule="evenodd" clip-rule="evenodd"
        d="M36.7531 46.8323C37.0234 47.4145 36.7706 48.1056 36.1884 48.376C33.4979 49.6254 30.8322 49.8547 28.6482 48.8522C26.4328 47.8353 24.9885 45.6791 24.514 42.7532L26.8086 42.3811C27.1919 44.745 28.2747 46.1231 29.6179 46.7396C30.9923 47.3705 32.9166 47.3323 35.2094 46.2677C35.7916 45.9973 36.4828 46.2501 36.7531 46.8323Z"
        fill="#1C1478" />
    <path fill-rule="evenodd" clip-rule="evenodd" d="M33.5848 35.1688V30.4141H35.698V37.282H29.8867V35.1688H33.5848Z"
        fill="#1C1478" />
    <path
        d="M46.7928 25.1327C46.7928 26.2998 45.8467 27.2459 44.6796 27.2459C43.5125 27.2459 42.5664 26.2998 42.5664 25.1327C42.5664 23.9656 43.5125 23.0195 44.6796 23.0195C45.8467 23.0195 46.7928 23.9656 46.7928 25.1327Z"
        fill="#1C1478" />
    <path
        d="M21.4334 25.1327C21.4334 26.2998 20.4873 27.2459 19.3202 27.2459C18.1531 27.2459 17.207 26.2998 17.207 25.1327C17.207 23.9656 18.1531 23.0195 19.3202 23.0195C20.4873 23.0195 21.4334 23.9656 21.4334 25.1327Z"
        fill="#1C1478" />
    <path
        d="M119.494 11.9187C119.281 11.9187 119.067 11.8654 118.881 11.7587C113.761 9.1187 109.334 7.9987 104.027 7.9987C98.7473 7.9987 93.7339 9.25203 89.1739 11.7587C88.5339 12.1054 87.7339 11.8654 87.3606 11.2254C87.0139 10.5854 87.2539 9.7587 87.8939 9.41203C92.8539 6.7187 98.2939 5.33203 104.027 5.33203C109.707 5.33203 114.667 6.58536 120.107 9.38536C120.774 9.73203 121.014 10.532 120.667 11.172C120.427 11.652 119.974 11.9187 119.494 11.9187ZM81.3339 25.9187C81.0673 25.9187 80.8006 25.8387 80.5606 25.6787C79.9473 25.252 79.8139 24.4254 80.2406 23.812C82.8806 20.0787 86.2406 17.1454 90.2406 15.092C98.6139 10.772 109.334 10.7454 117.734 15.0654C121.734 17.1187 125.094 20.0254 127.734 23.732C128.161 24.3187 128.027 25.172 127.414 25.5987C126.801 26.0254 125.974 25.892 125.547 25.2787C123.147 21.9187 120.107 19.2787 116.507 17.4387C108.854 13.5187 99.0673 13.5187 91.4406 17.4654C87.8139 19.332 84.7739 21.9987 82.3739 25.3587C82.1606 25.732 81.7606 25.9187 81.3339 25.9187ZM98.0006 58.1054C97.6539 58.1054 97.3073 57.972 97.0673 57.7054C94.7473 55.3854 93.4939 53.892 91.7073 50.6654C89.8673 47.3854 88.9073 43.3854 88.9073 39.092C88.9073 31.172 95.6806 24.7187 104.001 24.7187C112.321 24.7187 119.094 31.172 119.094 39.092C119.094 39.8387 118.507 40.4254 117.761 40.4254C117.014 40.4254 116.427 39.8387 116.427 39.092C116.427 32.6387 110.854 27.3854 104.001 27.3854C97.1473 27.3854 91.5739 32.6387 91.5739 39.092C91.5739 42.932 92.4273 46.4787 94.0539 49.3587C95.7606 52.4254 96.9339 53.732 98.9873 55.812C99.4939 56.3454 99.4939 57.172 98.9873 57.7054C98.6939 57.972 98.3473 58.1054 98.0006 58.1054ZM117.121 53.172C113.947 53.172 111.147 52.372 108.854 50.7987C104.881 48.1054 102.507 43.732 102.507 39.092C102.507 38.3454 103.094 37.7587 103.841 37.7587C104.587 37.7587 105.174 38.3454 105.174 39.092C105.174 42.852 107.094 46.3987 110.347 48.5854C112.241 49.8654 114.454 50.4787 117.121 50.4787C117.761 50.4787 118.827 50.3987 119.894 50.212C120.614 50.0787 121.307 50.5587 121.441 51.3054C121.574 52.0254 121.094 52.7187 120.347 52.852C118.827 53.1454 117.494 53.172 117.121 53.172ZM111.761 58.6654C111.654 58.6654 111.521 58.6387 111.414 58.612C107.174 57.4387 104.401 55.8654 101.494 53.012C97.7606 49.3054 95.7073 44.372 95.7073 39.092C95.7073 34.772 99.3873 31.252 103.921 31.252C108.454 31.252 112.134 34.772 112.134 39.092C112.134 41.9454 114.614 44.2654 117.681 44.2654C120.747 44.2654 123.227 41.9454 123.227 39.092C123.227 29.0387 114.561 20.8787 103.894 20.8787C96.3206 20.8787 89.3873 25.092 86.2673 31.6254C85.2273 33.7854 84.6939 36.3187 84.6939 39.092C84.6939 41.172 84.8806 44.452 86.4806 48.7187C86.7473 49.412 86.4006 50.1854 85.7073 50.4254C85.0139 50.692 84.2406 50.3187 84.0006 49.652C82.6939 46.1587 82.0539 42.692 82.0539 39.092C82.0539 35.892 82.6673 32.9854 83.8673 30.452C87.4139 23.012 95.2806 18.1854 103.894 18.1854C116.027 18.1854 125.894 27.5454 125.894 39.0654C125.894 43.3854 122.214 46.9054 117.681 46.9054C113.147 46.9054 109.467 43.3854 109.467 39.0654C109.467 36.212 106.987 33.892 103.921 33.892C100.854 33.892 98.3739 36.212 98.3739 39.0654C98.3739 43.6254 100.134 47.892 103.361 51.092C105.894 53.5987 108.321 54.9854 112.081 56.0254C112.801 56.212 113.201 56.9587 113.014 57.652C112.881 58.2654 112.321 58.6654 111.761 58.6654Z"
        fill="#1C1478" />
</svg>