<svg width="24" height="26" viewBox="0 0 24 26" fill="none" xmlns="http://www.w3.org/2000/svg">
<path fill-rule="evenodd" clip-rule="evenodd" d="M10.9091 7.29007V2.08H2.18182C1.57933 2.08 1.09091 1.61438 1.09091 1.04C1.09091 0.465624 1.57933 0 2.18182 0H21.8182C22.4207 0 22.9091 0.465624 22.9091 1.04C22.9091 1.61438 22.4207 2.08 21.8182 2.08H13.0909V7.29007C15.7242 7.33893 18.112 7.56319 19.9278 7.90941C20.9507 8.10443 21.8491 8.34859 22.5181 8.65018C22.8499 8.79973 23.1839 8.98909 23.45 9.23705C23.7179 9.48671 24 9.87819 24 10.4C24 10.9218 23.7179 11.3133 23.45 11.5629C23.1839 11.8109 22.8499 12.0003 22.5181 12.1498C21.8491 12.4514 20.9507 12.6956 19.9278 12.8906C18.112 13.2368 15.7242 13.4611 13.0909 13.5099L13.0909 24.96C13.0909 25.5344 12.6025 26 12 26C11.3975 26 10.9091 25.5344 10.9091 24.96L10.9091 13.5099C8.27579 13.4611 5.888 13.2368 4.07216 12.8906C3.04934 12.6956 2.1509 12.4514 1.48187 12.1498C1.15012 12.0003 0.816149 11.8109 0.55003 11.5629C0.28209 11.3133 0 10.9218 0 10.4C0 9.87819 0.28209 9.48671 0.55003 9.23705C0.816149 8.98909 1.15012 8.79973 1.48187 8.65018C2.1509 8.34859 3.04934 8.10443 4.07216 7.90941C5.888 7.56319 8.27579 7.33893 10.9091 7.29007ZM12 11.44C14.963 11.44 17.6153 11.2103 19.4999 10.851C20.2415 10.7096 20.8298 10.5544 21.2593 10.4C20.8298 10.2456 20.2415 10.0904 19.4999 9.94902C17.8498 9.63439 15.6113 9.41917 13.0909 9.37048V10.0072C13.0909 10.5816 12.6025 11.0472 12 11.0472C11.3975 11.0472 10.9091 10.5816 10.9091 10.0072V9.37048C8.38872 9.41917 6.1502 9.63439 4.50005 9.94902C3.7585 10.0904 3.17017 10.2456 2.74072 10.4C3.17017 10.5544 3.7585 10.7096 4.50005 10.851C6.38474 11.2103 9.03696 11.44 12 11.44Z" fill="white"/>
</svg>
