<svg width="25" height="24" viewBox="0 0 25 24" fill="none" xmlns="http://www.w3.org/2000/svg">
<g clip-path="url(#clip0_2369_10082)">
<path d="M2.17157 7.29607V16.7041C2.17157 17.3089 2.48837 17.8561 3.01637 18.1633L11.1668 22.8673C11.6852 23.1649 12.3284 23.1649 12.8468 22.8673L20.9972 18.1633C21.5156 17.8657 21.842 17.3089 21.842 16.7041V7.29607C21.842 6.69127 21.5252 6.14407 20.9972 5.83687L12.8468 1.13287C12.3284 0.835268 11.6852 0.835268 11.1668 1.13287L3.01637 5.83687C2.49797 6.13447 2.18117 6.69127 2.18117 7.29607H2.17157Z" fill="#213147"/>
<path d="M13.7781 13.8239L12.6165 17.0111C12.5877 17.0975 12.5877 17.1935 12.6165 17.2895L14.6133 22.7711L16.9269 21.4367L14.1525 13.8239C14.0853 13.6511 13.8453 13.6511 13.7781 13.8239Z" fill="#12AAFF"/>
<path d="M16.1112 8.467C16.044 8.2942 15.804 8.2942 15.7368 8.467L14.5752 11.6542C14.5464 11.7406 14.5464 11.8366 14.5752 11.9326L17.8488 20.9086L20.1624 19.5742L16.1112 8.4766V8.467Z" fill="#12AAFF"/>
<path d="M12.0021 1.488C12.0597 1.488 12.1173 1.5072 12.1653 1.536L20.9781 6.624C21.0837 6.6816 21.1413 6.7968 21.1413 6.912V17.088C21.1413 17.2032 21.0741 17.3184 20.9781 17.376L12.1653 22.464C12.1173 22.4928 12.0597 22.512 12.0021 22.512C11.9445 22.512 11.8869 22.4928 11.8389 22.464L3.02613 17.376C2.92053 17.3184 2.86293 17.2032 2.86293 17.088V6.9024C2.86293 6.7872 2.93013 6.672 3.02613 6.6144L11.8389 1.5264C11.8869 1.4976 11.9445 1.4784 12.0021 1.4784V1.488ZM12.0021 0C11.6853 0 11.3781 0.0768 11.0901 0.24L2.27733 5.328C1.71093 5.6544 1.36533 6.2496 1.36533 6.9024V17.0784C1.36533 17.7312 1.71093 18.3264 2.27733 18.6528L11.0901 23.7408C11.3685 23.904 11.6853 23.9808 12.0021 23.9808C12.3189 23.9808 12.6261 23.904 12.9141 23.7408L21.7269 18.6528C22.2933 18.3264 22.6389 17.7312 22.6389 17.0784V6.9024C22.6389 6.2496 22.2933 5.6544 21.7269 5.328L12.9045 0.24C12.6261 0.0768 12.3093 0 11.9925 0H12.0021Z" fill="#9DCCED"/>
<path d="M6.16531 20.9186L6.98131 18.6914L8.61331 20.045L7.08691 21.4466L6.16531 20.9186Z" fill="#213147"/>
<path d="M11.2532 6.18245H9.01636C8.85316 6.18245 8.69956 6.28805 8.64196 6.44165L3.85156 19.5745L6.16516 20.9089L11.4452 6.44165C11.4932 6.30725 11.3972 6.17285 11.2628 6.17285L11.2532 6.18245Z" fill="white"/>
<path d="M15.1703 6.18245H12.9335C12.7703 6.18245 12.6167 6.28805 12.5591 6.44165L7.0871 21.4369L9.4007 22.7713L15.3527 6.44165C15.4007 6.30725 15.3047 6.17285 15.1703 6.17285V6.18245Z" fill="white"/>
</g>
<defs>
<clipPath id="clip0_2369_10082">
<rect width="24" height="24" fill="white" transform="translate(0.00195312)"/>
</clipPath>
</defs>
</svg>
