<svg width="24" height="24" viewBox="0 0 24 24" fill="none" xmlns="http://www.w3.org/2000/svg">
<path d="M10.7419 0.858751C11.5195 0.409062 12.4776 0.409062 13.2552 0.858751L21.0027 5.33918C21.7805 5.78887 22.2594 6.61994 22.2594 7.51932V16.4801C22.2594 17.3796 21.7805 18.2107 21.0027 18.6602L13.2552 23.1408C12.4776 23.5903 11.5195 23.5903 10.7419 23.1408L2.99432 18.6602C2.21672 18.2107 1.7377 17.3796 1.7377 16.4801V7.51932C1.7377 6.61994 2.21672 5.78887 2.99432 5.33918L10.7419 0.858751Z" fill="url(#paint0_linear_2369_10503)"/>
<path d="M14.9211 9.48442C14.9276 9.41491 14.9517 9.31531 15.0295 9.22682C15.13 9.11238 15.261 9.08412 15.3412 9.0781H16.5986C16.7477 9.0781 16.869 8.95718 16.869 8.80753V7.40094C16.869 7.25176 16.7481 7.13037 16.5986 7.13037H15.1921C15.043 7.13037 14.9216 7.25129 14.9216 7.40094V8.65556C14.9169 8.72553 14.8942 8.84275 14.7998 8.94326C14.7164 9.03177 14.6158 9.06605 14.5399 9.07855H13.2442C13.095 9.07855 12.9737 9.19947 12.9737 9.34913V10.6038C12.969 10.6737 12.9463 10.7909 12.8518 10.8915C12.7684 10.98 12.6679 11.0143 12.5919 11.0268H11.4024C11.3264 11.0143 11.2258 10.98 11.1425 10.8915C11.0656 10.8099 11.0364 10.7177 11.0257 10.6482V9.3496C11.0257 9.20042 10.9048 9.07902 10.7552 9.07902H9.45489C9.37893 9.06652 9.27841 9.03223 9.19501 8.94374C9.11812 8.86219 9.08893 8.76999 9.07829 8.7005V7.40094C9.07829 7.25176 8.95738 7.13037 8.80775 7.13037H7.40136C7.25173 7.13037 7.13083 7.25129 7.13083 7.40094V8.80753C7.13083 8.95671 7.25173 9.0781 7.40136 9.0781H8.65349C8.73362 9.08412 8.86472 9.11285 8.96524 9.22682C9.0908 9.36951 9.07643 9.54094 9.07364 9.56968L9.07874 9.56503V10.6028C9.07412 10.6728 9.05142 10.79 8.95691 10.8905C8.87352 10.979 8.773 11.0133 8.69703 11.0258H7.40136C7.2522 11.0258 7.13083 11.1467 7.13083 11.2964V16.5989C7.13083 16.7481 7.25173 16.8695 7.40136 16.8695H8.80775C8.95691 16.8695 9.07829 16.7486 9.07829 16.5989V11.4322C9.08478 11.3627 9.10887 11.263 9.18669 11.1746C9.28721 11.0601 9.4183 11.0319 9.49844 11.0258H10.6014C10.6816 11.0319 10.8127 11.0606 10.9132 11.1746C11.0387 11.3173 11.0243 11.4887 11.0216 11.5174L11.0267 11.5128V12.703C11.0267 12.8522 11.1476 12.9736 11.2972 12.9736H12.7036C12.8528 12.9736 12.9741 12.8527 12.9741 12.703V11.4317C12.9806 11.3622 13.0047 11.2626 13.0825 11.1741C13.183 11.0597 13.3141 11.0314 13.3943 11.0254H14.4972C14.5774 11.0314 14.7085 11.0601 14.809 11.1741C14.9345 11.3168 14.9202 11.4882 14.9174 11.5169L14.9225 11.5123V16.5984C14.9225 16.7477 15.0434 16.869 15.193 16.869H16.5995C16.7486 16.869 16.87 16.7481 16.87 16.5984V11.2964C16.87 11.1472 16.749 11.0258 16.5995 11.0258H15.2991C15.2232 11.0133 15.1226 10.979 15.0392 10.8905C14.9623 10.809 14.9332 10.7168 14.9225 10.6473V9.48394L14.9211 9.48442Z" fill="white"/>
<defs>
<linearGradient id="paint0_linear_2369_10503" x1="6.3464" y1="3.73888" x2="12.019" y2="22.3412" gradientUnits="userSpaceOnUse">
<stop stop-color="#0F51FB"/>
<stop offset="0.444764" stop-color="#6324FB"/>
<stop offset="1" stop-color="#EF3678"/>
</linearGradient>
</defs>
</svg>
