<svg width="25" height="24" viewBox="0 0 25 24" fill="none" xmlns="http://www.w3.org/2000/svg">
<path fill-rule="evenodd" clip-rule="evenodd" d="M24.9918 12.0081C24.9918 18.6312 19.6229 24.0001 12.9998 24.0001C6.37682 24.0001 1.00781 18.6312 1.00781 12.0081C1.00781 5.38512 6.37682 0.0161133 12.9998 0.0161133C19.6229 0.0161133 24.9918 5.38512 24.9918 12.0081Z" fill="#D1D1D6"/>
<path d="M16 11.9995C16 12.7183 15.9375 13.3745 15.875 13.9995H10.0938C10.0313 13.3745 10 12.7183 10 11.9995C10 11.312 10.0313 10.6558 10.0938 9.99951H15.875C15.9375 10.6558 16 11.312 16 11.9995ZM16.875 9.99951H20.7188C20.9063 10.6558 21 11.312 21 11.9995C21 12.7183 20.9063 13.3745 20.7188 13.9995H16.875C16.9375 13.3745 17 12.687 17 11.9995C17 11.312 16.9375 10.6558 16.875 9.99951ZM20.4063 8.99951H16.75C16.4375 7.03076 15.8125 5.34326 15.0313 4.28076C17.4688 4.93701 19.4688 6.68701 20.4063 8.99951ZM15.75 8.99951H10.2188C10.4063 7.87451 10.7188 6.87451 11.0625 6.06201C11.4063 5.31201 11.75 4.78076 12.125 4.43701C12.4688 4.12451 12.75 3.99951 13 3.99951C13.2188 3.99951 13.5 4.12451 13.8438 4.43701C14.2188 4.78076 14.5625 5.31201 14.9063 6.06201C15.25 6.87451 15.5625 7.87451 15.75 8.99951ZM9.21875 8.99951H5.5625C6.5 6.68701 8.5 4.93701 10.9375 4.28076C10.1563 5.34326 9.53125 7.03076 9.21875 8.99951ZM5.25 9.99951H9.09375C9.03125 10.6558 9 11.312 9 11.9995C9 12.687 9.03125 13.3745 9.09375 13.9995H5.25C5.0625 13.3745 5 12.7183 5 11.9995C5 11.312 5.0625 10.6558 5.25 9.99951ZM11.0625 17.9683C10.7188 17.1558 10.4063 16.1558 10.2188 14.9995H15.75C15.5625 16.1558 15.25 17.1558 14.9063 17.9683C14.5625 18.7183 14.2188 19.2495 13.8438 19.5933C13.5 19.9058 13.2188 19.9995 13 19.9995C12.75 19.9995 12.4688 19.9058 12.125 19.5933C11.75 19.2495 11.4063 18.7183 11.0625 17.9683ZM9.21875 14.9995C9.53125 16.9995 10.1563 18.687 10.9375 19.7495C8.5 19.0933 6.5 17.3433 5.5625 14.9995H9.21875ZM20.4063 14.9995C19.4688 17.3433 17.4688 19.0933 15.0313 19.7495C15.8438 18.687 16.4375 16.9995 16.75 14.9995H20.4063Z" fill="#8E8E93"/>
</svg>
