<svg width="23" height="26" viewBox="0 0 23 26" fill="none" xmlns="http://www.w3.org/2000/svg">
    <path
        d="M7.32053 23.32C9.64652 25.6418 13.4188 25.643 15.7463 23.3226C15.7472 23.3217 15.748 23.3209 15.749 23.32L22.1259 16.9586C22.8615 16.1471 22.7983 14.8942 21.9847 14.1604C21.2272 13.4772 20.0738 13.4784 19.3177 14.1632L13.5068 19.962L13.5207 1.98117C13.5206 0.886949 12.6315 0 11.5347 0C10.4379 0 9.54877 0.886949 9.54877 1.98108L9.5309 19.9243L3.75176 14.1632C2.97574 13.3896 1.71807 13.3901 0.942617 14.1642C0.167162 14.9383 0.167627 16.1929 0.943641 16.9665L7.32053 23.32Z"
        fill="white" />
</svg>