<svg width="33" height="23" viewBox="0 0 33 23" fill="none" xmlns="http://www.w3.org/2000/svg">
<path d="M0.500196 15.7334C0.500196 12.6334 2.5002 9.93337 5.3002 8.98337C5.3002 8.83337 5.3002 8.68337 5.3002 8.53337C5.3002 4.13337 8.8502 0.533374 13.3002 0.533374C16.2502 0.533374 18.8502 2.18337 20.2002 4.58337C20.9502 4.03337 21.9002 3.73337 22.9002 3.73337C25.5502 3.73337 27.7002 5.88337 27.7002 8.53337C27.7002 9.18337 27.5502 9.73337 27.3502 10.2834C30.3002 10.8834 32.5002 13.4834 32.5002 16.5334C32.5002 20.0834 29.6002 22.9334 26.1002 22.9334H7.7002C3.7002 22.9334 0.500196 19.7334 0.500196 15.7334ZM26.1002 17.3334C26.1002 16.9334 25.7002 16.5334 25.3002 16.5334H15.7002C15.2502 16.5334 14.9002 16.9334 14.9002 17.3334C14.9002 17.7834 15.2502 18.1334 15.7002 18.1334H25.3002C25.7002 18.1334 26.1002 17.7834 26.1002 17.3334ZM12.5002 16.5334H7.7002C7.2502 16.5334 6.9002 16.9334 6.9002 17.3334C6.9002 17.7834 7.2502 18.1334 7.7002 18.1334H12.5002C12.9002 18.1334 13.3002 17.7834 13.3002 17.3334C13.3002 16.9334 12.9002 16.5334 12.5002 16.5334ZM6.9002 14.1334C6.9002 14.5834 7.2502 14.9334 7.7002 14.9334H17.3002C17.7002 14.9334 18.1002 14.5834 18.1002 14.1334C18.1002 13.7334 17.7002 13.3334 17.3002 13.3334H7.7002C7.2502 13.3334 6.9002 13.7334 6.9002 14.1334ZM20.5002 13.3334C20.0502 13.3334 19.7002 13.7334 19.7002 14.1334C19.7002 14.5834 20.0502 14.9334 20.5002 14.9334H25.3002C25.7002 14.9334 26.1002 14.5834 26.1002 14.1334C26.1002 13.7334 25.7002 13.3334 25.3002 13.3334H20.5002Z" fill="white"/>
</svg>
