<svg width="27" height="20" viewBox="0 0 27 20" fill="none" xmlns="http://www.w3.org/2000/svg">
    <path
        d="M3.09995 0.0666013H23.9C25.2 0.0666013 26.3 1.1666 26.3 2.4666C26.3 3.2666 25.9 3.9666 25.3 4.4166L14.45 12.5666C13.85 13.0166 13.1 13.0166 12.5 12.5666L1.64995 4.4166C1.04995 3.9666 0.699951 3.2666 0.699951 2.4666C0.699951 1.1666 1.74995 0.0666013 3.09995 0.0666013ZM0.699951 5.6666L11.55 13.8666C12.7 14.7166 14.25 14.7166 15.4 13.8666L26.3 5.6666V16.0666C26.3 17.8666 24.85 19.2666 23.1 19.2666H3.89995C2.09995 19.2666 0.699951 17.8666 0.699951 16.0666V5.6666Z"
        fill="white" />
</svg>