<svg width="17" height="20" viewBox="0 0 17 20" fill="none" xmlns="http://www.w3.org/2000/svg">
<path d="M5.50002 6.1V7.9H11.5V6.1C11.5 4.45 10.15 3.1 8.50002 3.1C6.81252 3.1 5.50002 4.45 5.50002 6.1ZM3.10002 7.9V6.1C3.10002 3.1375 5.50002 0.699999 8.50002 0.699999C11.4625 0.699999 13.9 3.1375 13.9 6.1V7.9H14.5C15.8125 7.9 16.9 8.9875 16.9 10.3V17.5C16.9 18.85 15.8125 19.9 14.5 19.9H2.50002C1.15002 19.9 0.100024 18.85 0.100024 17.5V10.3C0.100024 8.9875 1.15002 7.9 2.50002 7.9H3.10002Z" fill="white"/>
</svg>
