<svg width="33" height="32" viewBox="0 0 33 32" fill="none" xmlns="http://www.w3.org/2000/svg">
<path d="M12.9 16.3C10.2375 16.3 8.10002 14.1625 8.10002 11.5C8.10002 8.875 10.2375 6.7 12.9 6.7C15.525 6.7 17.7 8.875 17.7 11.5C17.7 14.1625 15.525 16.3 12.9 16.3ZM11.175 18.1H14.5875C15.2625 18.1 15.9 18.2125 16.5 18.4C16.6125 20.6125 17.5125 23.8375 20.3625 25.9C20.2875 25.9 20.25 25.9 20.175 25.9H5.58752C4.98752 25.9 4.50002 25.4125 4.50002 24.8125C4.50002 21.1 7.46252 18.1 11.175 18.1ZM22.7625 15.175C22.95 15.1 23.2125 15.1 23.4 15.175L27.9 16.975C28.275 17.125 28.5 17.4625 28.5 17.8C28.5 20.2 27.525 24.1375 23.4375 25.8625C23.2125 25.9375 22.95 25.9375 22.725 25.8625C18.6375 24.1375 17.7 20.2 17.7 17.8C17.7 17.4625 17.925 17.125 18.2625 16.975L22.7625 15.175ZM26.6625 18.4L23.1 16.975V24.025C25.65 22.7875 26.5125 20.3125 26.6625 18.4Z" fill="white"/>
</svg>
