<svg width="26" height="26" viewBox="0 0 26 26" fill="none" xmlns="http://www.w3.org/2000/svg">
    <path
        d="M13.0002 0.666502C19.8502 0.666502 25.4002 6.2165 25.4002 13.0665C25.4002 19.9165 19.8502 25.4665 13.0002 25.4665C6.15019 25.4665 0.600194 19.9165 0.600194 13.0665C0.600194 6.2165 6.15019 0.666502 13.0002 0.666502ZM19.0502 9.1665C19.2502 8.3665 18.7502 8.0165 18.2002 8.2165L6.25019 12.8165C5.45019 13.1165 5.45019 13.6165 6.10019 13.8165L9.15019 14.7665L16.2502 10.2665C16.6002 10.0665 16.9002 10.2165 16.6502 10.4165L10.9002 15.6165L10.7002 18.7665C11.0002 18.7665 11.1502 18.6165 11.3002 18.4665L12.8002 17.0165L15.9002 19.3165C16.5002 19.6165 16.9002 19.4665 17.0502 18.7665L19.0502 9.1665Z"
        fill="white" />
</svg>