<svg width="26" height="26" viewBox="0 0 29 24" fill="none" xmlns="http://www.w3.org/2000/svg">
    <path
        d="M19.35 7.6665C14.7 7.6665 11.05 11.1165 11.05 15.3665C11.05 16.0665 11.2 16.7665 11.4 17.4165C11.05 17.4165 10.8 17.4665 10.45 17.4665C9.24995 17.4665 8.29995 17.2165 7.04995 16.9665L3.64995 18.6665L4.59995 15.7165C2.19995 14.0165 0.74995 11.8165 0.74995 9.1665C0.74995 4.5165 5.09995 0.866502 10.45 0.866502C15.25 0.866502 19.45 3.8165 20.3 7.7165C19.95 7.6665 19.65 7.6665 19.35 7.6665ZM14.1 5.0165C13.4 5.0165 12.65 5.5165 12.65 6.2665C12.65 6.9665 13.35 7.4665 14.1 7.4665C14.85 7.4665 15.3 6.9665 15.3 6.2665C15.3 5.5165 14.85 5.0165 14.1 5.0165ZM7.29995 7.4665C8.04995 7.4665 8.49995 6.9665 8.49995 6.2665C8.49995 5.5165 8.04995 5.0165 7.29995 5.0165C6.54995 5.0165 5.84995 5.5165 5.84995 6.2665C5.84995 6.9665 6.54995 7.4665 7.29995 7.4665ZM28.25 15.2665C28.25 17.4665 26.8 19.4165 24.8 20.8665L25.55 23.3165L22.9 21.8165C21.9 22.0665 20.9 22.3165 19.95 22.3165C15.35 22.3165 11.7 19.1665 11.7 15.2665C11.7 11.3665 15.3 8.2165 19.95 8.2165C24.35 8.2165 28.25 11.3665 28.25 15.2665ZM17.25 14.0165C18 14.0165 18.5 13.5665 18.5 13.0665C18.5 12.5665 18 12.0665 17.25 12.0665C16.8 12.0665 16.3 12.5665 16.3 13.0665C16.3 13.5665 16.8 14.0165 17.25 14.0165ZM22.65 14.0165C23.35 14.0165 23.85 13.5665 23.85 13.0665C23.85 12.5665 23.35 12.0665 22.65 12.0665C22.15 12.0665 21.65 12.5665 21.65 13.0665C21.65 13.5665 22.15 14.0165 22.65 14.0165Z"
        fill="white" />
</svg>