<svg width="40" height="40" viewBox="0 0 40 40" fill="none" xmlns="http://www.w3.org/2000/svg">
<path d="M18.3396 21.271L3.47343 13.2811C2.80722 12.9231 2.00002 13.4057 2.00002 14.162V28.7137C2.00002 29.0883 2.20943 29.4315 2.54257 29.6029L17.4087 37.2503C18.0743 37.5927 18.8662 37.1095 18.8662 36.3611V22.1518C18.8662 21.7837 18.6639 21.4453 18.3396 21.271Z" fill="#FFC102"/>
<path d="M19.6909 2.22537L5.25707 9.43915C4.53733 9.79887 4.51553 10.8181 5.21923 11.2082L19.6527 19.2108C19.9566 19.3793 20.3262 19.378 20.6289 19.2072L34.816 11.2045C35.5111 10.8123 35.4893 9.80386 34.7779 9.4421L20.5912 2.22849C20.3085 2.08478 19.9745 2.08362 19.6909 2.22537Z" fill="#3DB2EF"/>
<path d="M36.4997 13.0975L21.917 21.5245C21.6077 21.7031 21.4173 22.0332 21.4173 22.3903V36.3938C21.4173 37.1344 22.1942 37.618 22.8587 37.2911L37.4414 30.1168C37.7834 29.9485 38 29.6006 38 29.2195V13.9633C38 13.1933 37.1663 12.7122 36.4997 13.0975Z" fill="#F96161"/>
</svg>
