<svg width="33" height="32" viewBox="0 0 33 32" fill="none" xmlns="http://www.w3.org/2000/svg">
<path d="M18.9 10.3H14.1L12.3 7.6375C12.0375 7.2625 12.3375 6.7 12.7875 6.7H20.175C20.625 6.7 20.925 7.2625 20.6625 7.6375L18.9 10.3ZM14.1 11.5H18.9C19.0125 11.6125 19.2 11.725 19.3875 11.8375C21.4875 13.1875 26.1 16.1125 26.1 22.3C26.1 24.2875 24.4875 25.9 22.5 25.9H10.5C8.51252 25.9 6.90002 24.2875 6.90002 22.3C6.90002 16.1125 11.475 13.1875 13.6125 11.8375C13.7625 11.725 13.95 11.6125 14.1 11.5ZM17.25 15.1C17.25 14.6875 16.9125 14.35 16.5 14.35C16.05 14.35 15.7125 14.6875 15.7125 15.1V15.325C15.525 15.4 15.3375 15.4375 15.15 15.55C14.5875 15.775 14.1 16.2625 13.95 16.9375C13.9125 17.3125 13.95 17.6875 14.1 18.025C14.25 18.3625 14.5125 18.5875 14.7375 18.775C15.1875 19.075 15.75 19.225 16.2 19.375H16.275C16.8 19.5625 17.1375 19.675 17.3625 19.825C17.475 19.9 17.5125 19.9375 17.5125 19.975C17.5125 20.0125 17.55 20.0875 17.5125 20.2375C17.5125 20.35 17.4375 20.4625 17.2125 20.575C16.9875 20.65 16.6125 20.725 16.125 20.65C15.9 20.6125 15.525 20.4625 15.15 20.35C15.075 20.3125 15 20.275 14.925 20.275C14.5125 20.125 14.1 20.35 13.9875 20.725C13.8375 21.1375 14.0625 21.55 14.4375 21.7C14.5125 21.7 14.55 21.7375 14.625 21.7375C14.925 21.85 15.375 22 15.75 22.075V22.3C15.75 22.75 16.0875 23.0875 16.5 23.0875C16.9125 23.0875 17.25 22.75 17.25 22.3V22.1125C17.4375 22.075 17.625 22 17.8125 21.925C18.4125 21.7 18.9 21.2125 19.0125 20.5C19.0875 20.0875 19.05 19.7125 18.9 19.375C18.75 19.0375 18.525 18.8125 18.2625 18.625C17.8125 18.2875 17.2125 18.1 16.725 17.95C16.1625 17.8 15.825 17.6875 15.6 17.5375C15.4875 17.4625 15.45 17.425 15.45 17.3875C15.45 17.3875 15.4125 17.35 15.45 17.2C15.45 17.125 15.525 17.0125 15.75 16.9C16.0125 16.7875 16.3875 16.75 16.8375 16.825C16.9875 16.825 17.5125 16.9375 17.6625 16.975C18.0375 17.0875 18.45 16.825 18.5625 16.45C18.675 16.0375 18.45 15.625 18.0375 15.5125C17.85 15.475 17.475 15.4 17.25 15.3625V15.1Z" fill="white"/>
</svg>
