<svg width="33" height="29" viewBox="0 0 33 29" fill="none" xmlns="http://www.w3.org/2000/svg">
<path d="M16.5001 0.166745C17.3751 0.166745 18.1876 0.666745 18.6251 1.41675L32.1251 24.4167C32.5626 25.2292 32.5626 26.1667 32.1251 26.9167C31.6876 27.7292 30.8751 28.1667 30.0001 28.1667H3.00012C2.06262 28.1667 1.25012 27.7292 0.812622 26.9167C0.375122 26.1667 0.375122 25.2292 0.812622 24.4167L14.3126 1.41675C14.7501 0.666745 15.5626 0.166745 16.5001 0.166745ZM16.5001 8.16675C15.6251 8.16675 15.0001 8.85425 15.0001 9.66675V16.6667C15.0001 17.5417 15.6251 18.1667 16.5001 18.1667C17.3126 18.1667 18.0001 17.5417 18.0001 16.6667V9.66675C18.0001 8.85425 17.3126 8.16675 16.5001 8.16675ZM18.5001 22.1667C18.5001 21.1042 17.5626 20.1667 16.5001 20.1667C15.3751 20.1667 14.5001 21.1042 14.5001 22.1667C14.5001 23.2917 15.3751 24.1667 16.5001 24.1667C17.5626 24.1667 18.5001 23.2917 18.5001 22.1667Z" fill="#FFD60A"/>
</svg>
