<svg width="33" height="29" viewBox="0 0 33 29" fill="none" xmlns="http://www.w3.org/2000/svg">
<path d="M16.5001 0.166501C17.3751 0.166501 18.1876 0.666501 18.6251 1.4165L32.1251 24.4165C32.5626 25.229 32.5626 26.1665 32.1251 26.9165C31.6876 27.729 30.8751 28.1665 30.0001 28.1665H3.00012C2.06262 28.1665 1.25012 27.729 0.812622 26.9165C0.375122 26.1665 0.375122 25.229 0.812622 24.4165L14.3126 1.4165C14.7501 0.666501 15.5626 0.166501 16.5001 0.166501ZM16.5001 8.1665C15.6251 8.1665 15.0001 8.854 15.0001 9.6665V16.6665C15.0001 17.5415 15.6251 18.1665 16.5001 18.1665C17.3126 18.1665 18.0001 17.5415 18.0001 16.6665V9.6665C18.0001 8.854 17.3126 8.1665 16.5001 8.1665ZM18.5001 22.1665C18.5001 21.104 17.5626 20.1665 16.5001 20.1665C15.3751 20.1665 14.5001 21.104 14.5001 22.1665C14.5001 23.2915 15.3751 24.1665 16.5001 24.1665C17.5626 24.1665 18.5001 23.2915 18.5001 22.1665Z" fill="#FFD60A"/>
</svg>
