<svg width="57" height="34" viewBox="0 0 57 34" fill="none" xmlns="http://www.w3.org/2000/svg">
<path d="M13.202 25.3532C13.9025 24.2861 14.9018 24.2967 15.6813 23.8808C16.2171 23.6007 16.7779 23.2701 17.1506 22.8246C17.9483 21.8681 17.2708 20.2695 16.0564 20.1592C15.4463 20.1148 14.7996 20.164 14.2151 20.3248C10.5439 21.345 6.86682 22.3868 3.19958 23.4779C2.52611 23.67 1.87826 24.0674 1.30993 24.5121C0.439991 25.1795 0.483753 26.5639 1.31996 27.2691C1.55473 27.4676 1.8301 27.6436 2.0977 27.8056C4.73481 29.3555 7.35263 30.9345 10.0148 32.434C10.6353 32.7836 11.362 33.0375 12.0729 33.1355C13.4386 33.3262 14.1625 32.301 13.6734 30.9451C13.5331 30.5659 13.2825 30.2115 12.9481 29.611C13.6063 29.5189 14.0476 29.4194 14.522 29.4113C17.5351 29.3432 20.5346 29.2826 23.5419 29.2359C30.2323 29.1138 36.3313 26.9427 42.1437 23.9067C43.9541 22.9532 45.6787 21.7183 47.1337 20.2859C49.4157 18.0452 51.5191 15.6113 53.5217 13.1238C55.7715 10.3157 56.4107 6.94093 56.0095 3.32236C55.9404 2.72052 55.7414 2.04467 55.3859 1.56572C55.1218 1.21886 54.4763 0.919743 54.0678 0.982582C53.6593 1.04542 53.157 1.54477 53.0553 1.96732C52.8631 2.64149 52.9075 3.42179 52.9072 4.15377C52.8809 7.13224 51.9378 9.70662 49.9945 11.8867C47.9914 14.1184 46.1803 16.5358 43.7618 18.3402C38.4143 22.3065 32.3521 24.5119 25.756 25.1853C22.1665 25.5562 18.5082 25.4531 14.8756 25.5554C14.3663 25.5646 13.8702 25.4384 13.202 25.3532Z" fill="#09BB07"/>
</svg>
