<svg width="25" height="25" viewBox="0 0 25 25" fill="none" xmlns="http://www.w3.org/2000/svg">
    <path
        d="M7.38747 3.48438H5.40858C4.88374 3.48438 4.38041 3.69266 4.00929 4.0634C3.63818 4.43415 3.42969 4.93698 3.42969 5.46129V7.43821"
        stroke="black" stroke-width="1.5" stroke-linecap="round" stroke-linejoin="round" />
    <path
        d="M17.2812 3.48438H19.2601C19.785 3.48438 20.2883 3.69266 20.6594 4.0634C21.0305 4.43415 21.239 4.93698 21.239 5.46129V7.43821"
        stroke="black" stroke-width="1.5" stroke-linecap="round" stroke-linejoin="round" />
    <path d="M16.293 8.42578V10.4027" stroke="black" stroke-width="1.5" stroke-linecap="round"
        stroke-linejoin="round" />
    <path d="M8.37695 8.42578V10.4027" stroke="black" stroke-width="1.5" stroke-linecap="round"
        stroke-linejoin="round" />
    <path
        d="M9.36719 16.3359C9.36719 16.3359 10.3566 17.3254 12.3355 17.3254C14.3144 17.3254 15.3039 16.3359 15.3039 16.3359"
        stroke="black" stroke-width="1.5" stroke-linecap="round" stroke-linejoin="round" />
    <path d="M12.3351 8.42578V13.3681H11.3457" stroke="black" stroke-width="1.5" stroke-linecap="round"
        stroke-linejoin="round" />
    <path
        d="M7.38747 21.2781H5.40858C4.88374 21.2781 4.38041 21.0698 4.00929 20.699C3.63818 20.3283 3.42969 19.8255 3.42969 19.3011V17.3242"
        stroke="black" stroke-width="1.5" stroke-linecap="round" stroke-linejoin="round" />
    <path
        d="M17.2812 21.2781H19.2601C19.785 21.2781 20.2883 21.0698 20.6594 20.699C21.0305 20.3283 21.239 19.8255 21.239 19.3011V17.3242"
        stroke="black" stroke-width="1.5" stroke-linecap="round" stroke-linejoin="round" />
</svg>