<svg width="18" height="18" viewBox="0 0 18 18" fill="none" xmlns="http://www.w3.org/2000/svg">
<path d="M4.49999 3.59902C4.79999 3.59902 5.09999 3.89902 5.09999 4.19902V4.79902C5.09999 5.13652 4.79999 5.39902 4.49999 5.39902H3.89999C3.56249 5.39902 3.29999 5.13652 3.29999 4.79902V4.19902C3.29999 3.89902 3.56249 3.59902 3.89999 3.59902H4.49999ZM0.599994 2.69902C0.599994 1.72402 1.38749 0.899023 2.39999 0.899023H5.99999C6.97499 0.899023 7.79999 1.72402 7.79999 2.69902V6.29902C7.79999 7.31152 6.97499 8.09902 5.99999 8.09902H2.39999C1.38749 8.09902 0.599994 7.31152 0.599994 6.29902V2.69902ZM2.39999 6.29902H5.99999V2.69902H2.39999V6.29902ZM3.29999 13.799C3.29999 13.499 3.56249 13.199 3.89999 13.199H4.49999C4.79999 13.199 5.09999 13.499 5.09999 13.799V14.399C5.09999 14.7365 4.79999 14.999 4.49999 14.999H3.89999C3.56249 14.999 3.29999 14.7365 3.29999 14.399V13.799ZM0.599994 12.299C0.599994 11.324 1.38749 10.499 2.39999 10.499H5.99999C6.97499 10.499 7.79999 11.324 7.79999 12.299V15.899C7.79999 16.9115 6.97499 17.699 5.99999 17.699H2.39999C1.38749 17.699 0.599994 16.9115 0.599994 15.899V12.299ZM2.39999 15.899H5.99999V12.299H2.39999V15.899ZM14.1 3.59902C14.4 3.59902 14.7 3.89902 14.7 4.19902V4.79902C14.7 5.13652 14.4 5.39902 14.1 5.39902H13.5C13.1625 5.39902 12.9 5.13652 12.9 4.79902V4.19902C12.9 3.89902 13.1625 3.59902 13.5 3.59902H14.1ZM15.6 0.899023C16.575 0.899023 17.4 1.72402 17.4 2.69902V6.29902C17.4 7.31152 16.575 8.09902 15.6 8.09902H12C10.9875 8.09902 10.2 7.31152 10.2 6.29902V2.69902C10.2 1.72402 10.9875 0.899023 12 0.899023H15.6ZM15.6 2.69902H12V6.29902H15.6V2.69902ZM15 17.699H13.8V16.499H15V17.699ZM16.2 16.499H17.4V17.699H16.2V16.499ZM17.4 15.299H13.8V14.099H12.6V17.699H10.2V10.499H13.8V11.699H16.2V10.499H17.4V15.299Z" fill="#25282B"/>
</svg>
